<svg width="18" height="21" viewBox="0 0 18 21" fill="none" xmlns="http://www.w3.org/2000/svg">
<path d="M5.88976 16.0556H12.5564M5.88976 12.7222H12.5564M17.0009 7.16667L11.4453 7.16667C10.8317 7.16667 10.3342 6.66921 10.3342 6.05556V0.5M2.55643 20.5H15.8898C16.5034 20.5 17.0009 20.0025 17.0009 19.3889L17.0009 6.93541C17.0009 6.6555 16.8952 6.3859 16.705 6.18051L11.7751 0.856216C11.5649 0.629106 11.2694 0.500002 10.9599 0.500002L2.55642 0.500002C1.94277 0.500003 1.44531 0.997464 1.44531 1.61111L1.44531 19.3889C1.44531 20.0025 1.94278 20.5 2.55643 20.5Z" stroke="#1E1E1E" stroke-linecap="round" stroke-linejoin="round"/>
</svg>
