<svg width="94" height="94" viewBox="0 0 94 94" fill="none" xmlns="http://www.w3.org/2000/svg">
<circle cx="46.846" cy="47" r="46.846" fill="#FB8A2E"/>
<path d="M82.304 54.1229H79.7363L74.3768 47.1739H73.1032V54.1229H71.0857V38.9512H73.1032V45.7881C73.8979 45.761 74.5263 45.5606 74.9882 45.187C75.4569 44.8134 75.8373 44.2767 76.1294 43.5771C76.2516 43.2714 76.3603 42.9827 76.4554 42.711C76.5573 42.4325 76.6388 42.1981 76.6999 42.0079C77.1075 40.8464 77.6272 40.0482 78.2589 39.6135C78.8906 39.1719 79.7669 38.9512 80.8877 38.9512H81.5093V40.7547H80.9998C80.1711 40.7547 79.5903 40.9177 79.2574 41.2437C78.9246 41.563 78.6189 42.171 78.3404 43.0676C78.0619 43.9643 77.7494 44.6232 77.403 45.0443C77.0566 45.4587 76.6388 45.8255 76.1497 46.1448L82.304 54.1229Z" fill="white"/>
<path d="M22.511 54.1229H19.9434L14.5838 47.1739H13.3102V54.1229H11.2927V38.9512H13.3102V45.7881C14.1049 45.761 14.7333 45.5606 15.1952 45.187C15.6639 44.8134 16.0443 44.2767 16.3364 43.5771C16.4587 43.2714 16.5673 42.9827 16.6624 42.711C16.7643 42.4325 16.8458 42.1981 16.907 42.0079C17.3145 40.8464 17.8342 40.0482 18.4659 39.6135C19.0977 39.1719 19.9739 38.9512 21.0947 38.9512H21.7163V40.7547H21.2068C20.3781 40.7547 19.7973 40.9177 19.4645 41.2437C19.1316 41.563 18.8259 42.171 18.5474 43.0676C18.2689 43.9643 17.9565 44.6232 17.61 45.0443C17.2636 45.4587 16.8458 45.8255 16.3568 46.1448L22.511 54.1229Z" fill="white"/>
<path d="M51.4187 75.8246C51.7584 76.1167 52.0369 76.4835 52.2543 76.925C52.4784 77.3598 52.5905 77.9236 52.5905 78.6164C52.5905 79.2957 52.4546 79.9274 52.1829 80.5116C51.9112 81.089 51.5376 81.5951 51.0621 82.0298C50.573 82.4781 49.9685 82.8212 49.2484 83.0589C48.5284 83.2967 47.7268 83.4156 46.8438 83.4156C45.8996 83.4156 45.0335 83.3239 44.2455 83.1404C43.4576 82.9502 42.8258 82.7533 42.3503 82.5495V80.2875H42.493C43.0364 80.6475 43.6953 80.9667 44.4697 81.2453C45.2509 81.517 46.032 81.6528 46.8132 81.6528C47.3091 81.6528 47.8016 81.5883 48.2907 81.4592C48.7865 81.3234 49.2009 81.106 49.5337 80.8071C49.8666 80.5082 50.1111 80.1856 50.2674 79.8391C50.4236 79.4859 50.5017 79.0444 50.5017 78.5145C50.5017 77.9983 50.4066 77.5636 50.2164 77.2103C50.033 76.8571 49.7715 76.5718 49.4318 76.3544C49.099 76.1371 48.6982 75.9842 48.2295 75.8959C47.7676 75.8008 47.2717 75.7533 46.7419 75.7533H45.1524V74.0619H46.5381C47.6114 74.0619 48.4741 73.8479 49.1262 73.4199C49.7783 72.992 50.1043 72.3671 50.1043 71.5451C50.1043 71.1715 50.0228 70.8523 49.8598 70.5873C49.7036 70.3156 49.4794 70.0949 49.1873 69.925C48.868 69.7416 48.5318 69.6194 48.1786 69.5582C47.8321 69.4903 47.4517 69.4563 47.0374 69.4563C46.6026 69.4563 46.1747 69.5073 45.7535 69.6092C45.3324 69.7043 44.935 69.8231 44.5614 69.9658C44.2082 70.1084 43.8991 70.2579 43.6342 70.4141C43.3693 70.5704 43.1519 70.6994 42.9821 70.8013H42.8496V68.5699C43.3115 68.3525 43.9399 68.1521 44.7346 67.9687C45.5294 67.7853 46.3139 67.6936 47.0883 67.6936C47.8695 67.6936 48.542 67.7615 49.1058 67.8974C49.6696 68.0265 50.1858 68.2404 50.6545 68.5393C51.164 68.8722 51.5444 69.2661 51.7957 69.7213C52.0539 70.1696 52.1829 70.7062 52.1829 71.3312C52.1829 72.1531 51.9078 72.8697 51.3576 73.4811C50.8142 74.0924 50.1009 74.4932 49.2179 74.6834V74.8362C49.5575 74.8974 49.9243 75.0061 50.3183 75.1623C50.7191 75.3185 51.0859 75.5393 51.4187 75.8246Z" fill="white"/>
<path d="M42.9553 10.6069H51.9861L52.6808 11.0701L52.7965 11.3016V16.8591H57.0804L57.6593 17.3222L57.7751 17.6695V23.1112L57.4277 23.6901L57.0804 23.9216H47.7022L47.3549 23.8058L47.1233 23.9216H37.8609L37.3978 23.6901L37.1663 23.3427V17.438L37.7452 16.8591H42.029V11.4174L42.2606 10.9543L42.9553 10.6069ZM43.071 11.5332L42.9553 11.649V16.7433L43.071 16.8591H51.7545L51.9861 16.6275V11.7647L51.8703 11.5332H43.071ZM38.0925 17.7853L37.9767 17.9011V22.8796L38.0925 22.9954H46.8918L47.0076 22.8796V17.9011L46.8918 17.7853H38.0925ZM47.9338 17.7853V22.9954H56.8488L56.9646 22.7638V18.0168L56.8488 17.7853H47.9338Z" fill="white" stroke="white" stroke-width="0.770527"/>
<path d="M22.2791 23.6075L24.0785 21.8081L72.662 70.3916L70.8626 72.191L22.2791 23.6075Z" fill="white"/>
<path d="M23.1788 71.2913L21.3794 69.4919L69.9629 20.9084L71.7623 22.7078L23.1788 71.2913Z" fill="white"/>
</svg>
