<svg width="252" height="94" viewBox="0 0 252 94" fill="none" xmlns="http://www.w3.org/2000/svg">
<circle cx="46.846" cy="47" r="46.846" fill="#FB8A2E"/>
<path d="M82.304 54.1229H79.7363L74.3768 47.1739H73.1032V54.1229H71.0857V38.9512H73.1032V45.7881C73.8979 45.761 74.5263 45.5606 74.9882 45.187C75.4569 44.8134 75.8373 44.2767 76.1294 43.5771C76.2516 43.2714 76.3603 42.9827 76.4554 42.711C76.5573 42.4325 76.6388 42.1981 76.6999 42.0079C77.1075 40.8464 77.6272 40.0482 78.2589 39.6135C78.8906 39.1719 79.7669 38.9512 80.8877 38.9512H81.5093V40.7547H80.9998C80.1711 40.7547 79.5903 40.9177 79.2574 41.2437C78.9246 41.563 78.6189 42.171 78.3404 43.0676C78.0619 43.9643 77.7494 44.6232 77.403 45.0443C77.0566 45.4587 76.6388 45.8255 76.1497 46.1448L82.304 54.1229Z" fill="white"/>
<path d="M22.511 54.1229H19.9434L14.5838 47.1739H13.3102V54.1229H11.2927V38.9512H13.3102V45.7881C14.1049 45.761 14.7333 45.5606 15.1952 45.187C15.6639 44.8134 16.0443 44.2767 16.3364 43.5771C16.4587 43.2714 16.5673 42.9827 16.6624 42.711C16.7643 42.4325 16.8458 42.1981 16.907 42.0079C17.3145 40.8464 17.8342 40.0482 18.4659 39.6135C19.0977 39.1719 19.9739 38.9512 21.0947 38.9512H21.7163V40.7547H21.2068C20.3781 40.7547 19.7973 40.9177 19.4645 41.2437C19.1316 41.563 18.8259 42.171 18.5474 43.0676C18.2689 43.9643 17.9565 44.6232 17.61 45.0443C17.2636 45.4587 16.8458 45.8255 16.3568 46.1448L22.511 54.1229Z" fill="white"/>
<path d="M51.4187 75.8246C51.7584 76.1167 52.0369 76.4835 52.2543 76.925C52.4784 77.3598 52.5905 77.9236 52.5905 78.6164C52.5905 79.2957 52.4546 79.9274 52.1829 80.5116C51.9112 81.089 51.5376 81.5951 51.0621 82.0298C50.573 82.4781 49.9685 82.8212 49.2484 83.0589C48.5284 83.2967 47.7268 83.4156 46.8438 83.4156C45.8996 83.4156 45.0335 83.3239 44.2455 83.1404C43.4576 82.9502 42.8258 82.7533 42.3503 82.5495V80.2875H42.493C43.0364 80.6475 43.6953 80.9667 44.4697 81.2453C45.2509 81.517 46.032 81.6528 46.8132 81.6528C47.3091 81.6528 47.8016 81.5883 48.2907 81.4592C48.7865 81.3234 49.2009 81.106 49.5337 80.8071C49.8666 80.5082 50.1111 80.1856 50.2674 79.8391C50.4236 79.4859 50.5017 79.0444 50.5017 78.5145C50.5017 77.9983 50.4066 77.5636 50.2164 77.2103C50.033 76.8571 49.7715 76.5718 49.4318 76.3544C49.099 76.1371 48.6982 75.9842 48.2295 75.8959C47.7676 75.8008 47.2717 75.7533 46.7419 75.7533H45.1524V74.0619H46.5381C47.6114 74.0619 48.4741 73.8479 49.1262 73.4199C49.7783 72.992 50.1043 72.3671 50.1043 71.5451C50.1043 71.1715 50.0228 70.8523 49.8598 70.5873C49.7036 70.3156 49.4794 70.0949 49.1873 69.925C48.868 69.7416 48.5318 69.6194 48.1786 69.5582C47.8321 69.4903 47.4517 69.4563 47.0374 69.4563C46.6026 69.4563 46.1747 69.5073 45.7535 69.6092C45.3324 69.7043 44.935 69.8231 44.5614 69.9658C44.2082 70.1084 43.8991 70.2579 43.6342 70.4141C43.3693 70.5704 43.1519 70.6994 42.9821 70.8013H42.8496V68.5699C43.3115 68.3525 43.9399 68.1521 44.7346 67.9687C45.5294 67.7853 46.3139 67.6936 47.0883 67.6936C47.8695 67.6936 48.542 67.7615 49.1058 67.8974C49.6696 68.0265 50.1858 68.2404 50.6545 68.5393C51.164 68.8722 51.5444 69.2661 51.7957 69.7213C52.0539 70.1696 52.1829 70.7062 52.1829 71.3312C52.1829 72.1531 51.9078 72.8697 51.3576 73.4811C50.8142 74.0924 50.1009 74.4932 49.2179 74.6834V74.8362C49.5575 74.8974 49.9243 75.0061 50.3183 75.1623C50.7191 75.3185 51.0859 75.5393 51.4187 75.8246Z" fill="white"/>
<path d="M42.9553 10.6069H51.9861L52.6808 11.0701L52.7965 11.3016V16.8591H57.0804L57.6593 17.3222L57.7751 17.6695V23.1112L57.4277 23.6901L57.0804 23.9216H47.7022L47.3549 23.8058L47.1233 23.9216H37.8609L37.3978 23.6901L37.1663 23.3427V17.438L37.7452 16.8591H42.029V11.4174L42.2606 10.9543L42.9553 10.6069ZM43.071 11.5332L42.9553 11.649V16.7433L43.071 16.8591H51.7545L51.9861 16.6275V11.7647L51.8703 11.5332H43.071ZM38.0925 17.7853L37.9767 17.9011V22.8796L38.0925 22.9954H46.8918L47.0076 22.8796V17.9011L46.8918 17.7853H38.0925ZM47.9338 17.7853V22.9954H56.8488L56.9646 22.7638V18.0168L56.8488 17.7853H47.9338Z" fill="white" stroke="white" stroke-width="0.770527"/>
<path d="M22.2791 23.6075L24.0785 21.8081L72.662 70.3916L70.8626 72.191L22.2791 23.6075Z" fill="white"/>
<path d="M23.1788 71.2913L21.3794 69.4919L69.9629 20.9084L71.7623 22.7078L23.1788 71.2913Z" fill="white"/>
<path d="M112.254 34.6884H111.465V19.896H112.254V26.7847H112.326L114.806 19.896H115.616L112.9 27.2768V26.8155L115.77 34.6884H114.94L112.326 27.3998H112.254V34.6884Z" fill="#FB8A2E"/>
<path d="M117.917 34.6884V19.896H118.686L118.614 32.9867H119.034L118.47 33.5813L121.474 19.896H122.427V34.6884H121.658L121.71 21.5874H121.341L121.833 21.0646L118.88 34.6884H117.917Z" fill="#FB8A2E"/>
<path d="M125.609 28.7017V27.9841H126.901C127.393 27.9841 127.758 27.8679 127.998 27.6356C128.244 27.4032 128.367 27.0171 128.367 26.4772V22.1205C128.367 21.5806 128.244 21.1944 127.998 20.9621C127.758 20.7229 127.393 20.6033 126.901 20.6033H125.609V19.896H126.952C127.437 19.896 127.844 19.978 128.172 20.142C128.5 20.2992 128.743 20.5418 128.9 20.8698C129.064 21.1979 129.146 21.6113 129.146 22.1102V26.4772C129.146 26.9829 129.064 27.3998 128.9 27.7278C128.743 28.0559 128.5 28.3019 128.172 28.4659C127.844 28.6231 127.437 28.7017 126.952 28.7017H125.609ZM125.209 34.6884V19.896H125.988V34.6884H125.209Z" fill="#FB8A2E"/>
<path d="M135.905 34.6884H135.137V20.6033H132.389V34.6884H131.6V19.896H135.905V34.6884Z" fill="#FB8A2E"/>
<path d="M138.616 34.6884V19.896H139.385L139.313 32.9867H139.733L139.169 33.5813L142.173 19.896H143.126V34.6884H142.357L142.409 21.5874H142.04L142.532 21.0646L139.579 34.6884H138.616Z" fill="#FB8A2E"/>
<path d="M149.025 34.6884V27.9944H148.984C148.902 28.0627 148.799 28.1311 148.676 28.1994C148.56 28.2609 148.42 28.3156 148.256 28.3634C148.092 28.4044 147.911 28.4249 147.713 28.4249C147.255 28.4249 146.865 28.3292 146.544 28.1379C146.23 27.9465 145.991 27.6732 145.826 27.3178C145.669 26.9556 145.591 26.5148 145.591 25.9954V19.896H146.37V25.9646C146.37 26.3474 146.424 26.6686 146.534 26.9283C146.643 27.188 146.804 27.3827 147.016 27.5126C147.227 27.6356 147.487 27.6971 147.795 27.6971C147.966 27.6971 148.13 27.6766 148.287 27.6356C148.444 27.5946 148.584 27.5399 148.707 27.4716C148.83 27.4032 148.936 27.3246 149.025 27.2358V19.896H149.794V34.6884H149.025Z" fill="#FB8A2E"/>
<path d="M152.525 34.6884V19.896H153.304V26.7437H156.041V19.896H156.82V34.6884H156.041V27.4511H153.304V34.6884H152.525Z" fill="#FB8A2E"/>
<path d="M159.889 34.6884V33.9811H161.232C161.731 33.9811 162.093 33.8717 162.319 33.653C162.544 33.4275 162.657 33.0653 162.657 32.5664V28.2712C162.657 27.7791 162.544 27.4203 162.319 27.1948C162.093 26.9693 161.731 26.8565 161.232 26.8565H159.889V26.1594H161.293C161.772 26.1594 162.172 26.238 162.493 26.3952C162.814 26.5455 163.053 26.7813 163.21 27.1025C163.374 27.4169 163.456 27.8167 163.456 28.3019V32.5459C163.456 33.0243 163.374 33.4241 163.21 33.7453C163.053 34.0596 162.814 34.2954 162.493 34.4526C162.172 34.6098 161.772 34.6884 161.293 34.6884H159.889ZM159.499 34.6884V19.896H160.279V34.6884H159.499ZM164.338 34.6884V19.896H165.127V34.6884H164.338Z" fill="#FB8A2E"/>
<path d="M167.766 34.6884V19.896H168.535L168.463 32.9867H168.883L168.32 33.5813L171.323 19.896H172.277V34.6884H171.508L171.559 21.5874H171.19L171.682 21.0646L168.73 34.6884H167.766ZM170.042 19.1476C169.741 19.1476 169.485 19.0895 169.273 18.9734C169.061 18.8503 168.897 18.6795 168.781 18.4608C168.672 18.2353 168.617 17.9585 168.617 17.6305V17.0256H169.273V17.6305C169.273 17.9175 169.334 18.1498 169.457 18.3275C169.587 18.4984 169.782 18.5838 170.042 18.5838C170.295 18.5838 170.483 18.4984 170.606 18.3275C170.729 18.1498 170.79 17.9175 170.79 17.6305V17.0256H171.456V17.6305C171.456 17.9585 171.398 18.2353 171.282 18.4608C171.166 18.6795 171.002 18.8503 170.79 18.9734C170.585 19.0895 170.336 19.1476 170.042 19.1476Z" fill="#FB8A2E"/>
<path d="M178.958 27.3793V26.6617H179.707C180.117 26.6617 180.424 26.5387 180.629 26.2927C180.841 26.0467 180.947 25.6981 180.947 25.2471V21.9052C180.947 21.5908 180.903 21.3311 180.814 21.1261C180.732 20.9211 180.605 20.7707 180.434 20.675C180.27 20.5725 180.065 20.5213 179.819 20.5213C179.573 20.5213 179.361 20.5725 179.184 20.675C179.006 20.7776 178.873 20.9313 178.784 21.1363C178.702 21.3414 178.661 21.5942 178.661 21.8949V24.1399H177.892V21.9359C177.892 21.4781 177.967 21.0919 178.118 20.7776C178.268 20.4564 178.487 20.2137 178.774 20.0497C179.061 19.8789 179.409 19.7934 179.819 19.7934C180.223 19.7934 180.564 19.8755 180.844 20.0395C181.131 20.2035 181.35 20.4427 181.501 20.7571C181.651 21.0714 181.726 21.4644 181.726 21.9359V25.1035C181.726 25.6229 181.62 26.0398 181.408 26.3542C181.203 26.6686 180.906 26.8667 180.516 26.9488V26.9898C180.961 27.0649 181.299 27.2631 181.531 27.5843C181.764 27.9055 181.88 28.3361 181.88 28.876V32.5356C181.88 33.0277 181.801 33.4412 181.644 33.776C181.487 34.1041 181.258 34.3569 180.957 34.5346C180.663 34.7055 180.301 34.7909 179.871 34.7909C179.42 34.7909 179.037 34.7055 178.722 34.5346C178.408 34.3569 178.169 34.1041 178.005 33.776C177.848 33.4412 177.769 33.0277 177.769 32.5356V30.3624H178.538V32.5766C178.538 32.9115 178.586 33.1883 178.681 33.407C178.784 33.6257 178.934 33.7897 179.132 33.899C179.331 34.0084 179.577 34.0631 179.871 34.0631C180.137 34.0631 180.359 34.0084 180.537 33.899C180.721 33.7897 180.858 33.6257 180.947 33.407C181.043 33.1815 181.09 32.9047 181.09 32.5766V28.7837C181.09 28.319 180.971 27.9705 180.732 27.7381C180.499 27.4989 180.158 27.3793 179.707 27.3793H178.958Z" fill="#FB8A2E"/>
<path d="M183.996 34.6884L185.851 19.896H186.64V21.0646H186.364L184.775 34.6884H183.996ZM184.918 30.8237L185 30.1369H187.768L187.85 30.8237H184.918ZM187.983 34.6884L186.394 21.0646V19.896H186.917L188.773 34.6884H187.983Z" fill="#FB8A2E"/>
<path d="M191.545 34.6884V33.9913H193.123C193.54 33.9913 193.855 33.8785 194.066 33.653C194.285 33.4207 194.394 33.0824 194.394 32.6381V28.8452C194.394 28.5172 194.343 28.2472 194.241 28.0354C194.145 27.8235 193.991 27.6698 193.779 27.5741C193.574 27.4716 193.301 27.4203 192.959 27.4203H191.545V26.7335H192.949C193.38 26.7335 193.697 26.6276 193.902 26.4157C194.107 26.197 194.21 25.8587 194.21 25.4008V21.8949C194.21 21.4644 194.104 21.1398 193.892 20.9211C193.687 20.7024 193.373 20.593 192.949 20.593H191.545V19.896H193.011C193.441 19.896 193.803 19.9746 194.097 20.1317C194.391 20.2821 194.613 20.5042 194.763 20.7981C194.921 21.0919 194.999 21.4507 194.999 21.8744V25.3188C194.999 25.6469 194.955 25.9305 194.866 26.1697C194.777 26.402 194.647 26.59 194.476 26.7335C194.306 26.877 194.101 26.9658 193.861 27V27.041C194.148 27.082 194.388 27.1777 194.579 27.328C194.777 27.4784 194.927 27.6868 195.03 27.9534C195.132 28.2131 195.184 28.5274 195.184 28.8965V32.6587C195.184 33.096 195.105 33.4685 194.948 33.776C194.798 34.0767 194.572 34.3057 194.271 34.4629C193.978 34.6132 193.615 34.6884 193.185 34.6884H191.545ZM191.155 34.6884V19.896H191.934V34.6884H191.155Z" fill="#FB8A2E"/>
<path d="M199.883 34.7909C199.459 34.7909 199.087 34.6918 198.766 34.4936C198.451 34.2954 198.205 34.0118 198.027 33.6428C197.85 33.2669 197.761 32.8158 197.761 32.2896V22.2947C197.761 21.7685 197.85 21.3209 198.027 20.9518C198.205 20.576 198.451 20.2889 198.766 20.0907C199.087 19.8925 199.459 19.7934 199.883 19.7934C200.307 19.7934 200.676 19.8925 200.99 20.0907C201.311 20.2889 201.561 20.576 201.738 20.9518C201.916 21.3209 202.005 21.7685 202.005 22.2947V32.2896C202.005 32.8158 201.916 33.2669 201.738 33.6428C201.561 34.0118 201.311 34.2954 200.99 34.4936C200.676 34.6918 200.307 34.7909 199.883 34.7909ZM199.883 34.0631C200.163 34.0631 200.402 33.9947 200.6 33.858C200.799 33.7214 200.949 33.5232 201.052 33.2635C201.161 32.9969 201.216 32.6757 201.216 32.2999V22.2845C201.216 21.9086 201.161 21.5908 201.052 21.3311C200.949 21.0646 200.799 20.863 200.6 20.7263C200.402 20.5896 200.163 20.5213 199.883 20.5213C199.603 20.5213 199.364 20.5896 199.165 20.7263C198.967 20.863 198.813 21.0646 198.704 21.3311C198.602 21.5908 198.55 21.9086 198.55 22.2845V32.2999C198.55 32.6757 198.602 32.9969 198.704 33.2635C198.813 33.5232 198.967 33.7214 199.165 33.858C199.364 33.9947 199.603 34.0631 199.883 34.0631Z" fill="#FB8A2E"/>
<path d="M204.5 37.2819H203.762V33.9811H204.172C204.295 33.8444 204.397 33.6598 204.479 33.4275C204.562 33.1883 204.623 32.9047 204.664 32.5766C204.705 32.2418 204.729 31.8659 204.736 31.449L204.941 19.896H208.734V33.9811H209.544V37.2819H208.805V34.6884H204.5V37.2819ZM205.505 31.5105C205.491 31.8796 205.47 32.2144 205.443 32.5151C205.416 32.8158 205.371 33.0858 205.31 33.325C205.248 33.5642 205.163 33.7658 205.054 33.9298V33.9811H207.955V20.6033H205.679L205.505 31.5105Z" fill="#FB8A2E"/>
<path d="M112.254 34.6884H111.465V19.896H112.254V26.7847H112.326L114.806 19.896H115.616L112.9 27.2768V26.8155L115.77 34.6884H114.94L112.326 27.3998H112.254V34.6884Z" stroke="#FB8A2E" stroke-width="0.539765"/>
<path d="M117.917 34.6884V19.896H118.686L118.614 32.9867H119.034L118.47 33.5813L121.474 19.896H122.427V34.6884H121.658L121.71 21.5874H121.341L121.833 21.0646L118.88 34.6884H117.917Z" stroke="#FB8A2E" stroke-width="0.539765"/>
<path d="M125.609 28.7017V27.9841H126.901C127.393 27.9841 127.758 27.8679 127.998 27.6356C128.244 27.4032 128.367 27.0171 128.367 26.4772V22.1205C128.367 21.5806 128.244 21.1944 127.998 20.9621C127.758 20.7229 127.393 20.6033 126.901 20.6033H125.609V19.896H126.952C127.437 19.896 127.844 19.978 128.172 20.142C128.5 20.2992 128.743 20.5418 128.9 20.8698C129.064 21.1979 129.146 21.6113 129.146 22.1102V26.4772C129.146 26.9829 129.064 27.3998 128.9 27.7278C128.743 28.0559 128.5 28.3019 128.172 28.4659C127.844 28.6231 127.437 28.7017 126.952 28.7017H125.609ZM125.209 34.6884V19.896H125.988V34.6884H125.209Z" stroke="#FB8A2E" stroke-width="0.539765"/>
<path d="M135.905 34.6884H135.137V20.6033H132.389V34.6884H131.6V19.896H135.905V34.6884Z" stroke="#FB8A2E" stroke-width="0.539765"/>
<path d="M138.616 34.6884V19.896H139.385L139.313 32.9867H139.733L139.169 33.5813L142.173 19.896H143.126V34.6884H142.357L142.409 21.5874H142.04L142.532 21.0646L139.579 34.6884H138.616Z" stroke="#FB8A2E" stroke-width="0.539765"/>
<path d="M149.025 34.6884V27.9944H148.984C148.902 28.0627 148.799 28.1311 148.676 28.1994C148.56 28.2609 148.42 28.3156 148.256 28.3634C148.092 28.4044 147.911 28.4249 147.713 28.4249C147.255 28.4249 146.865 28.3292 146.544 28.1379C146.23 27.9465 145.991 27.6732 145.826 27.3178C145.669 26.9556 145.591 26.5148 145.591 25.9954V19.896H146.37V25.9646C146.37 26.3474 146.424 26.6686 146.534 26.9283C146.643 27.188 146.804 27.3827 147.016 27.5126C147.227 27.6356 147.487 27.6971 147.795 27.6971C147.966 27.6971 148.13 27.6766 148.287 27.6356C148.444 27.5946 148.584 27.5399 148.707 27.4716C148.83 27.4032 148.936 27.3246 149.025 27.2358V19.896H149.794V34.6884H149.025Z" stroke="#FB8A2E" stroke-width="0.539765"/>
<path d="M152.525 34.6884V19.896H153.304V26.7437H156.041V19.896H156.82V34.6884H156.041V27.4511H153.304V34.6884H152.525Z" stroke="#FB8A2E" stroke-width="0.539765"/>
<path d="M159.889 34.6884V33.9811H161.232C161.731 33.9811 162.093 33.8717 162.319 33.653C162.544 33.4275 162.657 33.0653 162.657 32.5664V28.2712C162.657 27.7791 162.544 27.4203 162.319 27.1948C162.093 26.9693 161.731 26.8565 161.232 26.8565H159.889V26.1594H161.293C161.772 26.1594 162.172 26.238 162.493 26.3952C162.814 26.5455 163.053 26.7813 163.21 27.1025C163.374 27.4169 163.456 27.8167 163.456 28.3019V32.5459C163.456 33.0243 163.374 33.4241 163.21 33.7453C163.053 34.0596 162.814 34.2954 162.493 34.4526C162.172 34.6098 161.772 34.6884 161.293 34.6884H159.889ZM159.499 34.6884V19.896H160.279V34.6884H159.499ZM164.338 34.6884V19.896H165.127V34.6884H164.338Z" stroke="#FB8A2E" stroke-width="0.539765"/>
<path d="M167.766 34.6884V19.896H168.535L168.463 32.9867H168.883L168.32 33.5813L171.323 19.896H172.277V34.6884H171.508L171.559 21.5874H171.19L171.682 21.0646L168.73 34.6884H167.766ZM170.042 19.1476C169.741 19.1476 169.485 19.0895 169.273 18.9734C169.061 18.8503 168.897 18.6795 168.781 18.4608C168.672 18.2353 168.617 17.9585 168.617 17.6305V17.0256H169.273V17.6305C169.273 17.9175 169.334 18.1498 169.457 18.3275C169.587 18.4984 169.782 18.5838 170.042 18.5838C170.295 18.5838 170.483 18.4984 170.606 18.3275C170.729 18.1498 170.79 17.9175 170.79 17.6305V17.0256H171.456V17.6305C171.456 17.9585 171.398 18.2353 171.282 18.4608C171.166 18.6795 171.002 18.8503 170.79 18.9734C170.585 19.0895 170.336 19.1476 170.042 19.1476Z" stroke="#FB8A2E" stroke-width="0.539765"/>
<path d="M178.958 27.3793V26.6617H179.707C180.117 26.6617 180.424 26.5387 180.629 26.2927C180.841 26.0467 180.947 25.6981 180.947 25.2471V21.9052C180.947 21.5908 180.903 21.3311 180.814 21.1261C180.732 20.9211 180.605 20.7707 180.434 20.675C180.27 20.5725 180.065 20.5213 179.819 20.5213C179.573 20.5213 179.361 20.5725 179.184 20.675C179.006 20.7776 178.873 20.9313 178.784 21.1363C178.702 21.3414 178.661 21.5942 178.661 21.8949V24.1399H177.892V21.9359C177.892 21.4781 177.967 21.0919 178.118 20.7776C178.268 20.4564 178.487 20.2137 178.774 20.0497C179.061 19.8789 179.409 19.7934 179.819 19.7934C180.223 19.7934 180.564 19.8755 180.844 20.0395C181.131 20.2035 181.35 20.4427 181.501 20.7571C181.651 21.0714 181.726 21.4644 181.726 21.9359V25.1035C181.726 25.6229 181.62 26.0398 181.408 26.3542C181.203 26.6686 180.906 26.8667 180.516 26.9488V26.9898C180.961 27.0649 181.299 27.2631 181.531 27.5843C181.764 27.9055 181.88 28.3361 181.88 28.876V32.5356C181.88 33.0277 181.801 33.4412 181.644 33.776C181.487 34.1041 181.258 34.3569 180.957 34.5346C180.663 34.7055 180.301 34.7909 179.871 34.7909C179.42 34.7909 179.037 34.7055 178.722 34.5346C178.408 34.3569 178.169 34.1041 178.005 33.776C177.848 33.4412 177.769 33.0277 177.769 32.5356V30.3624H178.538V32.5766C178.538 32.9115 178.586 33.1883 178.681 33.407C178.784 33.6257 178.934 33.7897 179.132 33.899C179.331 34.0084 179.577 34.0631 179.871 34.0631C180.137 34.0631 180.359 34.0084 180.537 33.899C180.721 33.7897 180.858 33.6257 180.947 33.407C181.043 33.1815 181.09 32.9047 181.09 32.5766V28.7837C181.09 28.319 180.971 27.9705 180.732 27.7381C180.499 27.4989 180.158 27.3793 179.707 27.3793H178.958Z" stroke="#FB8A2E" stroke-width="0.539765"/>
<path d="M183.996 34.6884L185.851 19.896H186.64V21.0646H186.364L184.775 34.6884H183.996ZM184.918 30.8237L185 30.1369H187.768L187.85 30.8237H184.918ZM187.983 34.6884L186.394 21.0646V19.896H186.917L188.773 34.6884H187.983Z" stroke="#FB8A2E" stroke-width="0.539765"/>
<path d="M191.545 34.6884V33.9913H193.123C193.54 33.9913 193.855 33.8785 194.066 33.653C194.285 33.4207 194.394 33.0824 194.394 32.6381V28.8452C194.394 28.5172 194.343 28.2472 194.241 28.0354C194.145 27.8235 193.991 27.6698 193.779 27.5741C193.574 27.4716 193.301 27.4203 192.959 27.4203H191.545V26.7335H192.949C193.38 26.7335 193.697 26.6276 193.902 26.4157C194.107 26.197 194.21 25.8587 194.21 25.4008V21.8949C194.21 21.4644 194.104 21.1398 193.892 20.9211C193.687 20.7024 193.373 20.593 192.949 20.593H191.545V19.896H193.011C193.441 19.896 193.803 19.9746 194.097 20.1317C194.391 20.2821 194.613 20.5042 194.763 20.7981C194.921 21.0919 194.999 21.4507 194.999 21.8744V25.3188C194.999 25.6469 194.955 25.9305 194.866 26.1697C194.777 26.402 194.647 26.59 194.476 26.7335C194.306 26.877 194.101 26.9658 193.861 27V27.041C194.148 27.082 194.388 27.1777 194.579 27.328C194.777 27.4784 194.927 27.6868 195.03 27.9534C195.132 28.2131 195.184 28.5274 195.184 28.8965V32.6587C195.184 33.096 195.105 33.4685 194.948 33.776C194.798 34.0767 194.572 34.3057 194.271 34.4629C193.978 34.6132 193.615 34.6884 193.185 34.6884H191.545ZM191.155 34.6884V19.896H191.934V34.6884H191.155Z" stroke="#FB8A2E" stroke-width="0.539765"/>
<path d="M199.883 34.7909C199.459 34.7909 199.087 34.6918 198.766 34.4936C198.451 34.2954 198.205 34.0118 198.027 33.6428C197.85 33.2669 197.761 32.8158 197.761 32.2896V22.2947C197.761 21.7685 197.85 21.3209 198.027 20.9518C198.205 20.576 198.451 20.2889 198.766 20.0907C199.087 19.8925 199.459 19.7934 199.883 19.7934C200.307 19.7934 200.676 19.8925 200.99 20.0907C201.311 20.2889 201.561 20.576 201.738 20.9518C201.916 21.3209 202.005 21.7685 202.005 22.2947V32.2896C202.005 32.8158 201.916 33.2669 201.738 33.6428C201.561 34.0118 201.311 34.2954 200.99 34.4936C200.676 34.6918 200.307 34.7909 199.883 34.7909ZM199.883 34.0631C200.163 34.0631 200.402 33.9947 200.6 33.858C200.799 33.7214 200.949 33.5232 201.052 33.2635C201.161 32.9969 201.216 32.6757 201.216 32.2999V22.2845C201.216 21.9086 201.161 21.5908 201.052 21.3311C200.949 21.0646 200.799 20.863 200.6 20.7263C200.402 20.5896 200.163 20.5213 199.883 20.5213C199.603 20.5213 199.364 20.5896 199.165 20.7263C198.967 20.863 198.813 21.0646 198.704 21.3311C198.602 21.5908 198.55 21.9086 198.55 22.2845V32.2999C198.55 32.6757 198.602 32.9969 198.704 33.2635C198.813 33.5232 198.967 33.7214 199.165 33.858C199.364 33.9947 199.603 34.0631 199.883 34.0631Z" stroke="#FB8A2E" stroke-width="0.539765"/>
<path d="M204.5 37.2819H203.762V33.9811H204.172C204.295 33.8444 204.397 33.6598 204.479 33.4275C204.562 33.1883 204.623 32.9047 204.664 32.5766C204.705 32.2418 204.729 31.8659 204.736 31.449L204.941 19.896H208.734V33.9811H209.544V37.2819H208.805V34.6884H204.5V37.2819ZM205.505 31.5105C205.491 31.8796 205.47 32.2144 205.443 32.5151C205.416 32.8158 205.371 33.0858 205.31 33.325C205.248 33.5642 205.163 33.7658 205.054 33.9298V33.9811H207.955V20.6033H205.679L205.505 31.5105Z" stroke="#FB8A2E" stroke-width="0.539765"/>
<path d="M113.381 76.7248H111.465V40.8153H113.381V57.5382H113.555L119.577 40.8153H121.543L114.949 58.7327V57.6129L121.916 76.7248H119.901L113.555 59.0313H113.381V76.7248Z" fill="#1E1E1E"/>
<path d="M131.433 76.9737C130.404 76.9737 129.5 76.7331 128.72 76.252C127.957 75.7709 127.36 75.0824 126.928 74.1865C126.497 73.2741 126.281 72.1791 126.281 70.9017V46.6384C126.281 45.361 126.497 44.2743 126.928 43.3785C127.36 42.466 127.957 41.7692 128.72 41.2881C129.5 40.807 130.404 40.5664 131.433 40.5664C132.461 40.5664 133.357 40.807 134.12 41.2881C134.9 41.7692 135.506 42.466 135.937 43.3785C136.368 44.2743 136.584 45.361 136.584 46.6384V70.9017C136.584 72.1791 136.368 73.2741 135.937 74.1865C135.506 75.0824 134.9 75.7709 134.12 76.252C133.357 76.7331 132.461 76.9737 131.433 76.9737ZM131.433 75.2068C132.113 75.2068 132.693 75.0409 133.175 74.7091C133.656 74.3773 134.021 73.8962 134.27 73.2658C134.535 72.6187 134.668 71.839 134.668 70.9265V46.6135C134.668 45.7011 134.535 44.9296 134.27 44.2992C134.021 43.6522 133.656 43.1628 133.175 42.831C132.693 42.4992 132.113 42.3333 131.433 42.3333C130.752 42.3333 130.172 42.4992 129.691 42.831C129.21 43.1628 128.836 43.6522 128.571 44.2992C128.322 44.9296 128.198 45.7011 128.198 46.6135V70.9265C128.198 71.839 128.322 72.6187 128.571 73.2658C128.836 73.8962 129.21 74.3773 129.691 74.7091C130.172 75.0409 130.752 75.2068 131.433 75.2068Z" fill="#1E1E1E"/>
<path d="M144.358 76.7248V75.0326H148.19C149.202 75.0326 149.966 74.7589 150.48 74.2114C151.011 73.6473 151.276 72.8261 151.276 71.7478V62.5402C151.276 61.7438 151.152 61.0885 150.903 60.5742C150.671 60.0599 150.297 59.6867 149.783 59.4544C149.285 59.2055 148.622 59.0811 147.792 59.0811H144.358V57.4138H147.767C148.813 57.4138 149.584 57.1566 150.082 56.6423C150.579 56.1115 150.828 55.2902 150.828 54.1787V45.6679C150.828 44.6227 150.571 43.8347 150.057 43.3038C149.559 42.7729 148.796 42.5075 147.767 42.5075H144.358V40.8153H147.917C148.962 40.8153 149.841 41.006 150.555 41.3876C151.268 41.7526 151.807 42.2918 152.172 43.0052C152.554 43.7186 152.744 44.5895 152.744 45.6181V53.9796C152.744 54.7759 152.637 55.4644 152.421 56.0451C152.205 56.6092 151.89 57.0654 151.475 57.4138C151.061 57.7622 150.563 57.9779 149.982 58.0608V58.1604C150.679 58.2599 151.26 58.4922 151.724 58.8571C152.205 59.2221 152.57 59.7281 152.819 60.3751C153.068 61.0056 153.192 61.7687 153.192 62.6646V71.7975C153.192 72.8593 153.002 73.7635 152.62 74.51C152.255 75.24 151.708 75.7958 150.978 76.1774C150.264 76.5423 149.385 76.7248 148.34 76.7248H144.358ZM143.412 76.7248V40.8153H145.304V76.7248H143.412Z" fill="#1E1E1E"/>
<path d="M159.573 76.7248V40.8153H167.636V42.5323H161.439V57.4636H167.337V59.1558H161.439V75.0077H167.636V76.7248H159.573Z" fill="#1E1E1E"/>
<path d="M174.887 62.1918V60.4498H178.023C179.217 60.4498 180.105 60.1678 180.686 59.6037C181.283 59.0396 181.582 58.1023 181.582 56.7917V46.2154C181.582 44.9048 181.283 43.9674 180.686 43.4033C180.105 42.8227 179.217 42.5323 178.023 42.5323H174.887V40.8153H178.147C179.325 40.8153 180.312 41.0143 181.109 41.4125C181.905 41.7941 182.494 42.383 182.876 43.1794C183.274 43.9757 183.473 44.9794 183.473 46.1905V56.7917C183.473 58.0193 183.274 59.0313 182.876 59.8277C182.494 60.624 181.905 61.2213 181.109 61.6194C180.312 62.001 179.325 62.1918 178.147 62.1918H174.887ZM173.917 76.7248V40.8153H175.808V76.7248H173.917Z" fill="#1E1E1E"/>
<path d="M189.48 76.7248V40.8153H191.371V57.4387H198.016V40.8153H199.907V76.7248H198.016V59.1558H191.371V76.7248H189.48Z" fill="#1E1E1E"/>
<path d="M206.562 76.7248V40.8153H208.428L208.254 72.5939H209.274L207.905 74.0372L215.197 40.8153H217.511V76.7248H215.645L215.769 44.9213H214.873L216.068 43.6522L208.901 76.7248H206.562Z" fill="#1E1E1E"/>
<path d="M224.141 76.7248V40.8153H226.032V57.4387H232.676V40.8153H234.567V76.7248H232.676V59.1558H226.032V76.7248H224.141Z" fill="#1E1E1E"/>
<path d="M246.323 76.9737C245.295 76.9737 244.391 76.7331 243.611 76.252C242.848 75.7709 242.25 75.0824 241.819 74.1865C241.388 73.2741 241.172 72.1791 241.172 70.9017V46.6384C241.172 45.361 241.388 44.2743 241.819 43.3785C242.25 42.466 242.848 41.7692 243.611 41.2881C244.391 40.807 245.295 40.5664 246.323 40.5664C247.352 40.5664 248.248 40.807 249.011 41.2881C249.791 41.7692 250.396 42.466 250.828 43.3785C251.259 44.2743 251.475 45.361 251.475 46.6384V70.9017C251.475 72.1791 251.259 73.2741 250.828 74.1865C250.396 75.0824 249.791 75.7709 249.011 76.252C248.248 76.7331 247.352 76.9737 246.323 76.9737ZM246.323 75.2068C247.004 75.2068 247.584 75.0409 248.065 74.7091C248.546 74.3773 248.911 73.8962 249.16 73.2658C249.426 72.6187 249.558 71.839 249.558 70.9265V46.6135C249.558 45.7011 249.426 44.9296 249.16 44.2992C248.911 43.6522 248.546 43.1628 248.065 42.831C247.584 42.4992 247.004 42.3333 246.323 42.3333C245.643 42.3333 245.062 42.4992 244.581 42.831C244.1 43.1628 243.727 43.6522 243.462 44.2992C243.213 44.9296 243.088 45.7011 243.088 46.6135V70.9265C243.088 71.839 243.213 72.6187 243.462 73.2658C243.727 73.8962 244.1 74.3773 244.581 74.7091C245.062 75.0409 245.643 75.2068 246.323 75.2068Z" fill="#1E1E1E"/>
<path d="M113.381 76.7248H111.465V40.8153H113.381V57.5382H113.555L119.577 40.8153H121.543L114.949 58.7327V57.6129L121.916 76.7248H119.901L113.555 59.0313H113.381V76.7248Z" stroke="#1E1E1E" stroke-width="0.788177"/>
<path d="M131.433 76.9737C130.404 76.9737 129.5 76.7331 128.72 76.252C127.957 75.7709 127.36 75.0824 126.928 74.1865C126.497 73.2741 126.281 72.1791 126.281 70.9017V46.6384C126.281 45.361 126.497 44.2743 126.928 43.3785C127.36 42.466 127.957 41.7692 128.72 41.2881C129.5 40.807 130.404 40.5664 131.433 40.5664C132.461 40.5664 133.357 40.807 134.12 41.2881C134.9 41.7692 135.506 42.466 135.937 43.3785C136.368 44.2743 136.584 45.361 136.584 46.6384V70.9017C136.584 72.1791 136.368 73.2741 135.937 74.1865C135.506 75.0824 134.9 75.7709 134.12 76.252C133.357 76.7331 132.461 76.9737 131.433 76.9737ZM131.433 75.2068C132.113 75.2068 132.693 75.0409 133.175 74.7091C133.656 74.3773 134.021 73.8962 134.27 73.2658C134.535 72.6187 134.668 71.839 134.668 70.9265V46.6135C134.668 45.7011 134.535 44.9296 134.27 44.2992C134.021 43.6522 133.656 43.1628 133.175 42.831C132.693 42.4992 132.113 42.3333 131.433 42.3333C130.752 42.3333 130.172 42.4992 129.691 42.831C129.21 43.1628 128.836 43.6522 128.571 44.2992C128.322 44.9296 128.198 45.7011 128.198 46.6135V70.9265C128.198 71.839 128.322 72.6187 128.571 73.2658C128.836 73.8962 129.21 74.3773 129.691 74.7091C130.172 75.0409 130.752 75.2068 131.433 75.2068Z" stroke="#1E1E1E" stroke-width="0.788177"/>
<path d="M144.358 76.7248V75.0326H148.19C149.202 75.0326 149.966 74.7589 150.48 74.2114C151.011 73.6473 151.276 72.8261 151.276 71.7478V62.5402C151.276 61.7438 151.152 61.0885 150.903 60.5742C150.671 60.0599 150.297 59.6867 149.783 59.4544C149.285 59.2055 148.622 59.0811 147.792 59.0811H144.358V57.4138H147.767C148.813 57.4138 149.584 57.1566 150.082 56.6423C150.579 56.1115 150.828 55.2902 150.828 54.1787V45.6679C150.828 44.6227 150.571 43.8347 150.057 43.3038C149.559 42.7729 148.796 42.5075 147.767 42.5075H144.358V40.8153H147.917C148.962 40.8153 149.841 41.006 150.555 41.3876C151.268 41.7526 151.807 42.2918 152.172 43.0052C152.554 43.7186 152.744 44.5895 152.744 45.6181V53.9796C152.744 54.7759 152.637 55.4644 152.421 56.0451C152.205 56.6092 151.89 57.0654 151.475 57.4138C151.061 57.7622 150.563 57.9779 149.982 58.0608V58.1604C150.679 58.2599 151.26 58.4922 151.724 58.8571C152.205 59.2221 152.57 59.7281 152.819 60.3751C153.068 61.0056 153.192 61.7687 153.192 62.6646V71.7975C153.192 72.8593 153.002 73.7635 152.62 74.51C152.255 75.24 151.708 75.7958 150.978 76.1774C150.264 76.5423 149.385 76.7248 148.34 76.7248H144.358ZM143.412 76.7248V40.8153H145.304V76.7248H143.412Z" stroke="#1E1E1E" stroke-width="0.788177"/>
<path d="M159.573 76.7248V40.8153H167.636V42.5323H161.439V57.4636H167.337V59.1558H161.439V75.0077H167.636V76.7248H159.573Z" stroke="#1E1E1E" stroke-width="0.788177"/>
<path d="M174.887 62.1918V60.4498H178.023C179.217 60.4498 180.105 60.1678 180.686 59.6037C181.283 59.0396 181.582 58.1023 181.582 56.7917V46.2154C181.582 44.9048 181.283 43.9674 180.686 43.4033C180.105 42.8227 179.217 42.5323 178.023 42.5323H174.887V40.8153H178.147C179.325 40.8153 180.312 41.0143 181.109 41.4125C181.905 41.7941 182.494 42.383 182.876 43.1794C183.274 43.9757 183.473 44.9794 183.473 46.1905V56.7917C183.473 58.0193 183.274 59.0313 182.876 59.8277C182.494 60.624 181.905 61.2213 181.109 61.6194C180.312 62.001 179.325 62.1918 178.147 62.1918H174.887ZM173.917 76.7248V40.8153H175.808V76.7248H173.917Z" stroke="#1E1E1E" stroke-width="0.788177"/>
<path d="M189.48 76.7248V40.8153H191.371V57.4387H198.016V40.8153H199.907V76.7248H198.016V59.1558H191.371V76.7248H189.48Z" stroke="#1E1E1E" stroke-width="0.788177"/>
<path d="M206.562 76.7248V40.8153H208.428L208.254 72.5939H209.274L207.905 74.0372L215.197 40.8153H217.511V76.7248H215.645L215.769 44.9213H214.873L216.068 43.6522L208.901 76.7248H206.562Z" stroke="#1E1E1E" stroke-width="0.788177"/>
<path d="M224.141 76.7248V40.8153H226.032V57.4387H232.676V40.8153H234.567V76.7248H232.676V59.1558H226.032V76.7248H224.141Z" stroke="#1E1E1E" stroke-width="0.788177"/>
<path d="M246.323 76.9737C245.295 76.9737 244.391 76.7331 243.611 76.252C242.848 75.7709 242.25 75.0824 241.819 74.1865C241.388 73.2741 241.172 72.1791 241.172 70.9017V46.6384C241.172 45.361 241.388 44.2743 241.819 43.3785C242.25 42.466 242.848 41.7692 243.611 41.2881C244.391 40.807 245.295 40.5664 246.323 40.5664C247.352 40.5664 248.248 40.807 249.011 41.2881C249.791 41.7692 250.396 42.466 250.828 43.3785C251.259 44.2743 251.475 45.361 251.475 46.6384V70.9017C251.475 72.1791 251.259 73.2741 250.828 74.1865C250.396 75.0824 249.791 75.7709 249.011 76.252C248.248 76.7331 247.352 76.9737 246.323 76.9737ZM246.323 75.2068C247.004 75.2068 247.584 75.0409 248.065 74.7091C248.546 74.3773 248.911 73.8962 249.16 73.2658C249.426 72.6187 249.558 71.839 249.558 70.9265V46.6135C249.558 45.7011 249.426 44.9296 249.16 44.2992C248.911 43.6522 248.546 43.1628 248.065 42.831C247.584 42.4992 247.004 42.3333 246.323 42.3333C245.643 42.3333 245.062 42.4992 244.581 42.831C244.1 43.1628 243.727 43.6522 243.462 44.2992C243.213 44.9296 243.088 45.7011 243.088 46.6135V70.9265C243.088 71.839 243.213 72.6187 243.462 73.2658C243.727 73.8962 244.1 74.3773 244.581 74.7091C245.062 75.0409 245.643 75.2068 246.323 75.2068Z" stroke="#1E1E1E" stroke-width="0.788177"/>
</svg>
