<svg width="828" height="467" viewBox="0 0 828 467" fill="none" xmlns="http://www.w3.org/2000/svg">
<path d="M304.46 0.819092C315.297 0.819092 816.109 0.819092 834.336 0.819092C852.564 0.819092 875.096 27.9922 875.096 27.9922L881.889 41.5788V367.656H1133.24L1167.21 394.829L1174 415.209V734.493L1153.62 768.46L1133.24 782.046H582.985L562.605 775.253L549.018 782.046H5.55618L-21.6169 768.46L-35.2035 748.08V401.623L-1.2371 367.656H250.114V48.372C250.114 48.372 255.888 30.1277 263.701 21.1989C275.42 7.80572 293.623 0.819092 304.46 0.819092ZM311.254 55.1653L304.46 61.9586V360.863L311.254 367.656H820.75L834.336 354.07V68.7519L827.543 55.1653H311.254ZM19.1427 422.002L12.3495 428.796V720.907L19.1427 727.7H535.432L542.225 720.907V428.796L535.432 422.002H19.1427ZM596.571 422.002V727.7H1119.65L1126.45 714.114V435.589L1119.65 422.002H596.571Z" fill="white"/>
</svg>
