<svg width="758" height="465" viewBox="0 0 758 465" fill="none" xmlns="http://www.w3.org/2000/svg">
<path d="M43.6306 364.686V312.133H0.800781V301.696C2.21664 285.826 3.63251 271.177 5.04837 257.749C6.70021 244.198 8.23406 231.319 9.64992 219.112C11.0658 206.782 12.5996 194.514 14.2515 182.306C15.9033 169.977 17.6731 157.159 19.561 143.853C21.6848 130.547 24.0445 116.081 26.6403 100.455H64.5146V301.696H82.9208V312.133H64.5146V364.686H43.6306ZM20.6229 301.696H43.6306L43.9846 109.611H42.5687C40.4449 122.185 38.5571 134.758 36.9053 147.332C35.2534 159.906 33.6016 172.357 31.9498 184.687C30.5339 197.016 29.118 209.224 27.7022 221.309C26.2863 233.395 24.9884 245.358 23.8085 257.199C22.6287 268.919 21.6847 280.455 20.9768 291.808L20.6229 301.696Z" fill="#333333"/>
<path d="M717.909 355.165V302.612H675.08V292.174C676.495 276.305 677.911 261.656 679.327 248.227C680.979 234.677 682.513 221.798 683.929 209.591C685.344 197.261 686.878 184.993 688.53 172.785C690.182 160.456 691.952 147.638 693.84 134.332C695.963 121.025 698.323 106.559 700.919 90.9339H738.793V292.174H757.199V302.612H738.793V355.165H717.909ZM694.902 292.174H717.909L718.263 100.09H716.847C714.724 112.663 712.836 125.237 711.184 137.811C709.532 150.384 707.88 162.836 706.229 175.166C704.813 187.495 703.397 199.703 701.981 211.788C700.565 223.873 699.267 235.837 698.087 247.678C696.907 259.397 695.963 270.933 695.256 282.286L694.902 292.174Z" fill="#333333"/>
<circle cx="381.415" cy="232.683" r="232.087" fill="#FB8A2E"/>
<path d="M557.086 267.972H544.365L517.813 233.544H511.503V267.972H501.508V192.807H511.503V226.679C515.44 226.545 518.553 225.552 520.842 223.701C523.164 221.85 525.048 219.191 526.495 215.725C527.101 214.211 527.64 212.78 528.111 211.434C528.616 210.054 529.019 208.893 529.322 207.951C531.341 202.196 533.916 198.242 537.046 196.088C540.175 193.901 544.517 192.807 550.07 192.807H553.149V201.742H550.625C546.519 201.742 543.642 202.55 541.993 204.165C540.344 205.747 538.829 208.759 537.45 213.201C536.07 217.643 534.522 220.908 532.805 222.994C531.089 225.047 529.019 226.864 526.596 228.446L557.086 267.972Z" fill="white"/>
<path d="M260.856 267.972H248.135L221.582 233.544H215.272V267.972H205.277V192.807H215.272V226.679C219.21 226.545 222.323 225.552 224.611 223.701C226.933 221.85 228.818 219.191 230.265 215.725C230.871 214.211 231.409 212.78 231.88 211.434C232.385 210.054 232.789 208.893 233.092 207.951C235.111 202.196 237.685 198.242 240.815 196.088C243.945 193.901 248.286 192.807 253.839 192.807H256.918V201.742H254.394C250.289 201.742 247.411 202.55 245.762 204.165C244.113 205.747 242.599 208.759 241.219 213.201C239.839 217.643 238.291 220.908 236.575 222.994C234.859 225.047 232.789 226.864 230.366 228.446L260.856 267.972Z" fill="white"/>
<path d="M404.072 375.487C405.754 376.934 407.134 378.752 408.211 380.939C409.322 383.093 409.877 385.886 409.877 389.319C409.877 392.684 409.204 395.814 407.858 398.708C406.512 401.569 404.661 404.076 402.305 406.23C399.882 408.451 396.887 410.15 393.319 411.328C389.752 412.506 385.781 413.095 381.406 413.095C376.728 413.095 372.438 412.641 368.534 411.732C364.63 410.79 361.5 409.814 359.145 408.804V397.598H359.851C362.544 399.381 365.808 400.963 369.644 402.343C373.514 403.689 377.385 404.362 381.255 404.362C383.711 404.362 386.151 404.042 388.574 403.403C391.031 402.73 393.084 401.653 394.733 400.172C396.382 398.691 397.593 397.093 398.367 395.376C399.141 393.626 399.528 391.439 399.528 388.814C399.528 386.256 399.057 384.103 398.115 382.353C397.206 380.603 395.911 379.189 394.228 378.112C392.579 377.035 390.594 376.278 388.271 375.841C385.983 375.37 383.526 375.134 380.901 375.134H373.027V366.754H379.892C385.209 366.754 389.483 365.694 392.714 363.574C395.944 361.454 397.56 358.358 397.56 354.286C397.56 352.435 397.156 350.853 396.348 349.541C395.574 348.195 394.464 347.101 393.017 346.259C391.435 345.351 389.769 344.745 388.019 344.442C386.303 344.106 384.418 343.937 382.365 343.937C380.211 343.937 378.091 344.19 376.005 344.695C373.918 345.166 371.95 345.755 370.099 346.461C368.349 347.168 366.817 347.908 365.505 348.682C364.193 349.457 363.116 350.096 362.274 350.601H361.618V339.546C363.906 338.469 367.019 337.476 370.957 336.567C374.894 335.659 378.781 335.204 382.618 335.204C386.488 335.204 389.82 335.541 392.613 336.214C395.406 336.853 397.964 337.913 400.286 339.394C402.81 341.043 404.694 342.995 405.939 345.25C407.218 347.471 407.858 350.13 407.858 353.226C407.858 357.298 406.495 360.848 403.769 363.877C401.077 366.906 397.543 368.891 393.168 369.834V370.591C394.851 370.894 396.668 371.432 398.62 372.206C400.605 372.98 402.423 374.074 404.072 375.487Z" fill="white"/>
<path d="M362.137 52.3823H406.878L410.32 54.6767L410.893 55.8239V83.3569H432.117L434.985 85.6513L435.558 87.3721V114.331L433.838 117.2L432.117 118.347H385.655L383.934 117.773L382.787 118.347H336.899L334.604 117.2L333.457 115.479V86.2249L336.325 83.3569H357.548V56.3975L358.696 54.1031L362.137 52.3823ZM362.711 56.9712L362.137 57.5448V82.7833L362.711 83.3569H405.731L406.878 82.2097V58.1184L406.305 56.9712H362.711ZM338.046 87.9457L337.472 88.5193V113.184L338.046 113.758H381.64L382.213 113.184V88.5193L381.64 87.9457H338.046ZM386.802 87.9457V113.758H430.97L431.543 112.611V89.0929L430.97 87.9457H386.802Z" fill="white" stroke="white" stroke-width="3.81739"/>
<path d="M259.707 116.791L268.622 107.876L509.317 348.571L500.402 357.486L259.707 116.791Z" fill="white"/>
<path d="M264.165 353.028L255.25 344.114L495.945 103.419L504.86 112.333L264.165 353.028Z" fill="white"/>
</svg>
